P1
16 16
0000000000000000
0000000000000000
0000000000000000
0011111101100000
0000110001100000
0000110001100000
0000110001100000
0000110001100000
0000110001100000
0000110001100000
0000110001100000
0000110001111100
0000000000000000
0000000000000000
0000000000000000
0000000000000000
